<svg xmlns="http://www.w3.org/2000/svg" xmlns:xlink="http://www.w3.org/1999/xlink" width="200" zoomAndPan="magnify" viewBox="0 0 150 149.999998" height="200" preserveAspectRatio="xMidYMid meet" version="1.0"><defs><clipPath id="a4bd10fff5"><path d="M 13.492188 23.707031 L 24.820312 23.707031 L 24.820312 35.039062 L 13.492188 35.039062 Z M 13.492188 23.707031 " clip-rule="nonzero"/></clipPath><clipPath id="ff39e71186"><path d="M 19.15625 23.707031 C 16.027344 23.707031 13.492188 26.242188 13.492188 29.375 C 13.492188 32.503906 16.027344 35.039062 19.15625 35.039062 C 22.285156 35.039062 24.820312 32.503906 24.820312 29.375 C 24.820312 26.242188 22.285156 23.707031 19.15625 23.707031 Z M 19.15625 23.707031 " clip-rule="nonzero"/></clipPath></defs><path fill="#000000" d="M 148.144531 110.113281 C 149.238281 113.042969 149.878906 116.183594 149.976562 119.472656 C 150 119.785156 150 120.097656 150 120.421875 C 150 136.753906 136.753906 150 120.421875 150 C 53.914062 150 0 96.085938 0 29.574219 C 0 13.246094 13.246094 0 29.574219 0 C 29.902344 0 30.214844 0 30.527344 0.0234375 C 33.816406 0.121094 36.96875 0.757812 39.894531 1.855469 L 51 49.929688 C 51 49.953125 50.988281 49.964844 50.964844 49.976562 L 30.597656 59.128906 L 30.539062 59.152344 C 39.882812 87.609375 62.390625 110.113281 90.847656 119.460938 L 90.871094 119.398438 L 100.035156 99.023438 L 148.144531 110.113281 " fill-opacity="1" fill-rule="nonzero"/><g clip-path="url(#a4bd10fff5)"><g clip-path="url(#ff39e71186)"><path fill="#000000" d="M 13.492188 23.707031 L 24.820312 23.707031 L 24.820312 35.039062 L 13.492188 35.039062 Z M 13.492188 23.707031 " fill-opacity="1" fill-rule="nonzero"/></g></g></svg>